<svg width="39" height="39" viewBox="0 0 39 39" fill="none" xmlns="http://www.w3.org/2000/svg">
<path d="M6.5 4.875H32.5C33.362 4.875 34.1886 5.21741 34.7981 5.8269C35.4076 6.4364 35.75 7.26305 35.75 8.125V30.875C35.75 31.737 35.4076 32.5636 34.7981 33.1731C34.1886 33.7826 33.362 34.125 32.5 34.125H6.5C5.63805 34.125 4.8114 33.7826 4.2019 33.1731C3.59241 32.5636 3.25 31.737 3.25 30.875V8.125C3.25 7.26305 3.59241 6.4364 4.2019 5.8269C4.8114 5.21741 5.63805 4.875 6.5 4.875V4.875ZM6.5 8.125V30.875H13V21.125H10.9688V8.125H6.5ZM14.625 30.875H24.375V21.125H22.3438V8.125H16.6562V21.125H14.625V30.875ZM26 30.875H32.5V8.125H28.0312V21.125H26V30.875Z" fill="black"/>
</svg>
